<svg width="50" height="50" viewBox="0 0 50 50" fill="none" xmlns="http://www.w3.org/2000/svg">
<path d="M14.9028 16.4589H44.4844C45.6894 16.4589 46.6667 17.4356 46.6667 18.6411V28.5811C46.6667 29.7861 45.69 30.7633 44.4844 30.7633H5.51555C4.31 30.7633 3.33333 29.7861 3.33333 28.5811V18.6411C3.33333 17.4361 4.31 16.4589 5.51555 16.4589H8.81H14.9028Z" fill="#F8DA7F"/>
<path d="M46.9833 34.0672H15.7606C15.4539 34.0672 15.205 33.8189 15.205 33.5117C15.205 33.2044 15.4539 32.9561 15.7606 32.9561H46.9833C48.0344 32.9561 48.8889 32.1017 48.8889 31.0506V15.8111C48.8889 14.7606 48.0344 13.9056 46.9833 13.9056H3.01667C1.96611 13.9056 1.11111 14.7606 1.11111 15.8111V31.0506C1.11111 32.1017 1.96611 32.9561 3.01667 32.9561C3.32333 32.9561 3.57222 33.2044 3.57222 33.5117C3.57222 33.8189 3.32333 34.0672 3.01667 34.0672C1.35333 34.0672 0 32.7139 0 31.0506V15.8111C0 14.1478 1.35333 12.7944 3.01667 12.7944H46.9833C48.6467 12.7944 50 14.1478 50 15.8111V31.0506C50 32.7144 48.6467 34.0672 46.9833 34.0672Z" fill="black"/>
<path d="M32.5483 28.7511H30.7428C29.3033 28.7511 28.1328 27.5806 28.1328 26.1411V18.6667C28.1328 18.36 28.3811 18.1111 28.6883 18.1111C28.9956 18.1111 29.2439 18.36 29.2439 18.6667V26.1411C29.2439 26.9678 29.9161 27.64 30.7428 27.64H32.5483C33.375 27.64 34.0472 26.9678 34.0472 26.1411V18.6667C34.0472 18.36 34.2956 18.1111 34.6028 18.1111C34.91 18.1111 35.1583 18.36 35.1583 18.6667V26.1411C35.1583 27.5806 33.9878 28.7511 32.5483 28.7511Z" fill="black"/>
<path d="M23.0217 24.0989H19.6644C19.3578 24.0989 19.1089 23.85 19.1089 23.5433V18.6667C19.1089 18.36 19.3578 18.1111 19.6644 18.1111H23.0217C24.3561 18.1111 25.4417 19.1967 25.4417 20.5311V21.6783C25.4422 23.0133 24.3567 24.0989 23.0217 24.0989ZM20.22 22.9878H23.0217C23.7433 22.9878 24.3306 22.4006 24.3306 21.6789V20.5317C24.3306 19.81 23.7433 19.2228 23.0217 19.2228H20.22V22.9878Z" fill="black"/>
<path d="M23.0217 28.9756H19.6644C19.3578 28.9756 19.1089 28.7272 19.1089 28.42V23.5433C19.1089 23.2367 19.3578 22.9878 19.6644 22.9878H23.0217C24.3561 22.9878 25.4417 24.0733 25.4417 25.4078V26.5556C25.4422 27.89 24.3567 28.9756 23.0217 28.9756ZM20.22 27.8644H23.0217C23.7433 27.8644 24.3306 27.2772 24.3306 26.5556V25.4083C24.3306 24.6867 23.7433 24.0994 23.0217 24.0994H20.22V27.8644Z" fill="black"/>
<path d="M41.3289 22.8839C41.1611 22.8839 41.0022 22.8078 40.8967 22.6772L37.9394 19.0156C37.7467 18.7767 37.7844 18.4267 38.0228 18.2344C38.2611 18.0411 38.6106 18.0789 38.8039 18.3172L41.3289 21.4439L43.8539 18.3172C44.0472 18.0783 44.3972 18.0411 44.635 18.2344C44.8739 18.4272 44.9111 18.7772 44.7183 19.0156L41.7611 22.6772C41.655 22.8078 41.4961 22.8839 41.3289 22.8839Z" fill="black"/>
<path d="M41.3289 28.7511C41.0217 28.7511 40.7733 28.5028 40.7733 28.1956V22.3283C40.7733 22.0217 41.0217 21.7728 41.3289 21.7728C41.6361 21.7728 41.8844 22.0217 41.8844 22.3283V28.1956C41.8844 28.5028 41.6356 28.7511 41.3289 28.7511Z" fill="black"/>
<path d="M11.9983 37.205H7.68333C7.37666 37.205 7.12777 36.9567 7.12777 36.6495V29.365L5.31388 29.3545C5.09888 29.3533 4.90444 29.2278 4.81333 29.0333C4.72277 28.8383 4.75277 28.6089 4.88999 28.4433L9.41333 23.0011C9.62444 22.7472 10.0567 22.7472 10.2678 23.0011L14.7917 28.4433C14.9289 28.6089 14.9589 28.8383 14.8683 29.0333C14.7778 29.2283 14.5828 29.3528 14.3683 29.3545L12.5539 29.3661V36.6483C12.5539 36.9561 12.305 37.205 11.9983 37.205ZM8.23888 36.0939H11.4428V28.815C11.4428 28.5094 11.6894 28.2617 11.9944 28.2594L13.1867 28.2511L9.84055 24.2256L6.49555 28.25L7.68666 28.2572C7.99222 28.2589 8.23888 28.5072 8.23888 28.8128V36.0939Z" fill="black"/>
<path d="M9.84056 21.0611C9.53389 21.0611 9.285 20.8122 9.285 20.5056V17.6289C9.285 17.3222 9.53389 17.0733 9.84056 17.0733C10.1472 17.0733 10.3961 17.3222 10.3961 17.6289V20.5056C10.3961 20.8122 10.1472 21.0611 9.84056 21.0611Z" fill="black"/>
<path d="M13.2578 22.77C13.1611 22.77 13.0633 22.745 12.9744 22.6922C12.7106 22.5356 12.6239 22.1944 12.7806 21.9306L14.4894 19.0539C14.6461 18.79 14.9872 18.7028 15.2511 18.86C15.515 19.0167 15.6017 19.3578 15.445 19.6217L13.7361 22.4983C13.6322 22.6733 13.4472 22.77 13.2578 22.77Z" fill="black"/>
<path d="M6.42388 22.77C6.23444 22.77 6.04944 22.6728 5.94555 22.4983L4.23666 19.6217C4.07999 19.3578 4.16666 19.0167 4.43055 18.86C4.69333 18.7028 5.03499 18.79 5.19222 19.0539L6.90111 21.9306C7.05777 22.1944 6.97055 22.535 6.70722 22.6922C6.61777 22.745 6.51999 22.77 6.42388 22.77Z" fill="black"/>
</svg>
