<svg width="40" height="40" viewBox="0 0 50 50" fill="none" xmlns="http://www.w3.org/2000/svg">
<path d="M12.1122 17.5156L15.6994 33.1511H42.5239L46.1111 17.5156H21.6178H12.1122Z" fill="#000000"/>
<path d="M44.7461 35.9289H13.4772C13.2178 35.9289 12.9928 35.7494 12.9356 35.4967L8.07833 14.1633C7.58667 12.0028 5.69556 10.4944 3.48 10.4944H0.555556C0.248889 10.4944 0 10.2456 0 9.93889C0 9.63222 0.248889 9.38333 0.555556 9.38333H3.48C6.21722 9.38333 8.55389 11.2472 9.16167 13.9167L13.92 34.8183H44.3022L48.7478 15.2939H21.6178C21.3111 15.2939 21.0622 15.045 21.0622 14.7383C21.0622 14.4317 21.3111 14.1828 21.6178 14.1828H49.4444C49.6139 14.1828 49.7733 14.26 49.8783 14.3917C49.9839 14.5239 50.0239 14.6967 49.9856 14.8617L45.2872 35.4967C45.23 35.7494 45.0056 35.9289 44.7461 35.9289Z" fill="black"/>
<path d="M10.7989 43.5922C8.38002 43.5922 6.41168 41.6244 6.41168 39.2056C6.41168 36.7867 8.37946 34.8183 10.7989 34.8183H44.7111C45.0184 34.8183 45.2667 35.0667 45.2667 35.3739C45.2667 35.6811 45.0184 35.9294 44.7111 35.9294H10.7989C8.99279 35.9294 7.52279 37.3994 7.52279 39.2056C7.52279 41.0117 8.99279 42.4811 10.7989 42.4811C11.1056 42.4811 11.3545 42.7294 11.3545 43.0367C11.3545 43.3439 11.1056 43.5922 10.7989 43.5922Z" fill="black"/>
<path d="M40.7911 47.1161C38.5422 47.1161 36.7122 45.2861 36.7122 43.0367C36.7122 40.7872 38.5422 38.9572 40.7911 38.9572C43.0406 38.9572 44.8706 40.7872 44.8706 43.0367C44.8706 45.2861 43.0406 47.1161 40.7911 47.1161ZM40.7911 40.0683C39.155 40.0683 37.8233 41.3994 37.8233 43.0367C37.8233 44.6739 39.1544 46.005 40.7911 46.005C42.4278 46.005 43.7594 44.6739 43.7594 43.0367C43.7594 41.3994 42.4278 40.0683 40.7911 40.0683Z" fill="black"/>
<path d="M18.8661 47.1161C16.6172 47.1161 14.7872 45.2861 14.7872 43.0367C14.7872 40.7872 16.6172 38.9572 18.8661 38.9572C21.1156 38.9572 22.9456 40.7872 22.9456 43.0367C22.9456 45.2861 21.1156 47.1161 18.8661 47.1161ZM18.8661 40.0683C17.2295 40.0683 15.8983 41.3994 15.8983 43.0367C15.8983 44.6739 17.2295 46.005 18.8661 46.005C20.5028 46.005 21.8345 44.6739 21.8345 43.0367C21.8345 41.3994 20.5028 40.0683 18.8661 40.0683Z" fill="black"/>
<path d="M32.2694 43.5922H22.39C22.0833 43.5922 21.8344 43.3439 21.8344 43.0367C21.8344 42.7294 22.0833 42.4811 22.39 42.4811H32.2694C32.5767 42.4811 32.825 42.7294 32.825 43.0367C32.825 43.3439 32.5767 43.5922 32.2694 43.5922Z" fill="black"/>
<path d="M44.7106 15.2933H30.0161C29.7089 15.2933 29.4606 15.0444 29.4606 14.7378V7.06222C29.4606 6.75556 29.7089 6.50667 30.0161 6.50667H44.7106C45.0178 6.50667 45.2661 6.75556 45.2661 7.06222V14.7378C45.2661 15.045 45.0178 15.2933 44.7106 15.2933ZM30.5717 14.1822H44.155V7.61778H30.5717V14.1822Z" fill="black"/>
<path d="M15.4505 15.2933C15.1439 15.2933 14.895 15.0445 14.895 14.7378V3.43945C14.895 3.13278 15.1439 2.8839 15.4505 2.8839H34.7311C35.0383 2.8839 35.2867 3.13278 35.2867 3.43945V7.06223C35.2867 7.3689 35.0383 7.61778 34.7311 7.61778C34.4239 7.61778 34.1755 7.3689 34.1755 7.06223V3.99501H16.0061V14.7378C16.0061 15.045 15.7572 15.2933 15.4505 15.2933Z" fill="black"/>
<path d="M42.4883 9.28444H32.2383V12.5155H42.4883V9.28444Z" fill="#000000"/>
</svg>
