<svg width="50" height="50" viewBox="0 0 50 50" fill="none" xmlns="http://www.w3.org/2000/svg">
<path d="M28.1011 3.33333H12.1811C10.8111 3.33333 9.70056 4.44389 9.70056 5.81389V35.4778C9.70056 36.8478 10.8111 37.9583 12.1811 37.9583H14.8106H27.7378H27.8967C29.3794 37.9583 30.5817 36.7561 30.5817 35.2733V25.9206V17.6494V5.81389C30.5817 4.44389 29.4711 3.33333 28.1011 3.33333Z" fill="#F8DA7F"/>
<path d="M41.5522 50H24.8611C24.5761 50 24.3372 49.7844 24.3084 49.5011C23.7822 44.3583 25.3795 39.3878 28.595 36.0756L24.4872 32.1233C24.2906 31.9517 24.045 31.8094 23.7756 31.7139L19.2411 30.83C19.2172 30.8256 19.1939 30.8189 19.1711 30.8117C17.0622 30.105 15.8484 27.9367 16.3478 25.7689L16.4872 25.1628C16.99 22.98 19.1211 21.5383 21.3328 21.8789L25.7134 22.2611C26.2528 22.3428 26.7395 22.5383 27.1584 22.8294L35.5845 28.7661C35.835 28.9428 35.8956 29.2889 35.7184 29.5406C35.5422 29.7917 35.1961 29.8506 34.9439 29.6744L26.52 23.7383C26.2422 23.5444 25.9167 23.4144 25.5806 23.3622L21.2 22.98C19.5211 22.7222 17.9434 23.7917 17.5706 25.4111L17.4311 26.0172C17.0634 27.6133 17.9478 29.21 19.4917 29.7456L24.0267 30.63C24.0506 30.635 24.0739 30.6411 24.0972 30.6483C24.5189 30.79 24.9034 31.0106 25.2389 31.3039L29.7772 35.6689C29.8867 35.7739 29.9484 35.9194 29.9478 36.0717C29.9472 36.2239 29.8845 36.3683 29.7739 36.4733C26.6384 39.44 25.0117 44.0511 25.3706 48.8889H41C41.0472 44.4261 41.6545 40.92 42.1922 37.8122C42.8478 34.0267 43.4134 30.7567 42.8428 26.7806C42.5045 24.4222 40.9222 22.4133 38.7145 21.5378L36.5484 20.5594C36.2689 20.4333 36.1445 20.1039 36.2711 19.8244C36.3978 19.545 36.7261 19.42 37.0061 19.5467L39.1478 20.5144C41.7011 21.5261 43.5472 23.87 43.9428 26.6217C44.5378 30.7722 43.9584 34.1222 43.2867 38.0006C42.7339 41.1928 42.1078 44.8106 42.1078 49.4444C42.1078 49.7517 41.8595 50 41.5522 50Z" fill="black"/>
<path d="M21.4783 41.8472H8.51112C7.02279 41.8472 5.81168 40.6361 5.81168 39.1478V2.69944C5.81168 1.21111 7.02279 0 8.51112 0C8.81779 0 9.06668 0.248889 9.06668 0.555556C9.06668 0.862222 8.81779 1.11111 8.51112 1.11111C7.63556 1.11111 6.92279 1.82389 6.92279 2.69944V39.1478C6.92279 40.0233 7.63556 40.7361 8.51112 40.7361H21.4778C21.7845 40.7361 22.0333 40.9844 22.0333 41.2917C22.0333 41.5989 21.785 41.8472 21.4783 41.8472Z" fill="black"/>
<path d="M33.3595 28.4328C33.0522 28.4328 32.8039 28.1844 32.8039 27.8772V2.69944C32.8039 1.82389 32.0917 1.11111 31.2156 1.11111H13.0706C12.7639 1.11111 12.515 0.862222 12.515 0.555556C12.515 0.248889 12.7639 0 13.0706 0H31.2156C32.7045 0 33.915 1.21111 33.915 2.69944V27.8772C33.915 28.1839 33.6667 28.4328 33.3595 28.4328Z" fill="black"/>
<path d="M25.08 12.7417C24.115 12.7417 23.1767 12.4011 22.4372 11.7817C22.2022 11.585 22.1711 11.2344 22.3678 10.9989C22.5645 10.7633 22.9145 10.7328 23.1506 10.9294C23.69 11.3811 24.375 11.63 25.08 11.63C26.7383 11.63 28.0878 10.2806 28.0878 8.62222C28.0878 6.96389 26.7383 5.61445 25.08 5.61445C23.4217 5.61445 22.0722 6.96389 22.0722 8.62222C22.0722 8.92889 21.8233 9.17778 21.5167 9.17778C21.21 9.17778 20.9611 8.92889 20.9611 8.62222C20.9611 6.35111 22.8089 4.50333 25.08 4.50333C27.3506 4.50333 29.1989 6.35111 29.1989 8.62222C29.1989 10.8933 27.3506 12.7417 25.08 12.7417Z" fill="black"/>
<path d="M13.0706 35.2994C12.7639 35.2994 12.515 35.0511 12.515 34.7439V0.555556C12.515 0.248889 12.7639 0 13.0706 0C13.3772 0 13.6261 0.248889 13.6261 0.555556V34.7439C13.6261 35.0511 13.3772 35.2994 13.0706 35.2994Z" fill="black"/>
</svg>
